<svg viewBox="0 0 341 48.125">
   <path d="M27.561,277.321a10.624,10.624,0,0,0,3.985-8.776,11.3,11.3,0,0,0-3.92-9.105q-3.919-3.318-12.281-4.569-5.357-.854-7.872-3.254a8.7,8.7,0,0,1-2.515-6.607A8.26,8.26,0,0,1,7.8,238.338q2.842-2.4,7.937-2.4a18.169,18.169,0,0,1,6.043,1.118,21.325,21.325,0,0,1,5.847,3.155,1.377,1.377,0,0,0,2.221-.329,1.481,1.481,0,0,0-.261-2.3,26.7,26.7,0,0,0-6.794-3.616,20.841,20.841,0,0,0-7.055-1.315q-6.6,0-10.321,3.254t-3.724,9.1q0,5.655,3.2,8.809t9.929,4.273q6.924,1.053,10.191,3.616a8.254,8.254,0,0,1,3.266,6.837,7.467,7.467,0,0,1-3.136,6.377q-3.136,2.3-8.754,2.3a21.106,21.106,0,0,1-7.643-1.381,15.572,15.572,0,0,1-5.879-3.813,1.409,1.409,0,0,0-2.221-.065q-1.372,1.182-.065,2.3a18.494,18.494,0,0,0,6.924,4.6,24.075,24.075,0,0,0,8.884,1.644Q23.576,280.51,27.561,277.321Zm20.25,2.827a1.74,1.74,0,0,0,.849-0.953L53.3,266.573H66.886a1.508,1.508,0,0,0,1.11-.46A1.528,1.528,0,0,0,68.454,265,1.724,1.724,0,0,0,68,263.779a1.459,1.459,0,0,0-1.11-.493H54.54l9.08-24.39L78.58,279.2a1.711,1.711,0,0,0,.882.953,1.382,1.382,0,0,0,1.209.033,1.48,1.48,0,0,0,.947-0.822,1.551,1.551,0,0,0,.033-1.282L65.188,233.571a1.695,1.695,0,0,0-3.136,0l-16.4,44.506a1.635,1.635,0,0,0,0,1.282,1.374,1.374,0,0,0,.915.822A1.447,1.447,0,0,0,47.811,280.148Zm64.084-.493a14.272,14.272,0,0,0,7.578-2.071,15.9,15.9,0,0,0,5.454-5.522,14.67,14.67,0,0,0,2.058-7.659v-15.58a14.5,14.5,0,0,0-2.058-7.626,16.015,16.015,0,0,0-5.454-5.489,14.272,14.272,0,0,0-7.578-2.071H98.568a1.564,1.564,0,0,0-1.143.493,1.583,1.583,0,0,0-.49,1.151v42.731a1.581,1.581,0,0,0,.49,1.15,1.56,1.56,0,0,0,1.143.493H111.9ZM100.2,236.924H111.9a11.313,11.313,0,0,1,5.944,1.611,12.238,12.238,0,0,1,4.279,4.306,11.5,11.5,0,0,1,1.6,5.982V264.4a11.667,11.667,0,0,1-1.6,6.016,12.154,12.154,0,0,1-4.279,4.339,11.312,11.312,0,0,1-5.944,1.61H100.2V236.924Zm45.988,43.191a1.529,1.529,0,0,0,.457-1.117V236.924h14.437a9.561,9.561,0,0,1,5,1.348,10.271,10.271,0,0,1,3.592,3.583,9.531,9.531,0,0,1,1.34,5,9.7,9.7,0,0,1-1.34,5.029,10.176,10.176,0,0,1-3.592,3.616,9.551,9.551,0,0,1-5,1.347h-10a1.617,1.617,0,0,0-1.143.461,1.553,1.553,0,0,0-.49,1.183,1.581,1.581,0,0,0,.49,1.15,1.56,1.56,0,0,0,1.143.493h9.538l10.779,19.657a1.605,1.605,0,0,0,.947.789,1.645,1.645,0,0,0,1.274-.132,1.7,1.7,0,0,0,.588-2.235l-10.126-18.473a12.4,12.4,0,0,0,5.226-2.531,13.73,13.73,0,0,0,3.626-4.569,12.834,12.834,0,0,0,1.339-5.785,12.59,12.59,0,0,0-1.8-6.607,13.941,13.941,0,0,0-4.768-4.8,12.516,12.516,0,0,0-6.631-1.808h-16.07a1.564,1.564,0,0,0-1.143.493,1.582,1.582,0,0,0-.49,1.151V279a1.475,1.475,0,0,0,.49,1.117,1.621,1.621,0,0,0,1.143.461A1.591,1.591,0,0,0,146.19,280.115Zm44.355,0.033a1.737,1.737,0,0,0,.849-0.953l4.638-12.622H209.62a1.508,1.508,0,0,0,1.111-.46,1.528,1.528,0,0,0,.457-1.118,1.725,1.725,0,0,0-.457-1.216,1.459,1.459,0,0,0-1.111-.493H197.274l9.08-24.39,14.959,40.3a1.714,1.714,0,0,0,.882.953,1.382,1.382,0,0,0,1.209.033,1.479,1.479,0,0,0,.947-0.822,1.553,1.553,0,0,0,.033-1.282l-16.462-44.506a1.7,1.7,0,0,0-3.136,0l-16.4,44.506a1.639,1.639,0,0,0,0,1.282,1.375,1.375,0,0,0,.915.822A1.447,1.447,0,0,0,190.545,280.148Zm68.787-.493a1.531,1.531,0,0,0,1.176-.493,1.642,1.642,0,0,0,.457-1.15,1.613,1.613,0,0,0-.457-1.184,1.59,1.59,0,0,0-1.176-.46h-7.316V234.36a1.689,1.689,0,0,0-.654-1.38,1.575,1.575,0,0,0-1.567-.2L239.539,236.6a1.386,1.386,0,0,0-.915.789,1.92,1.92,0,0,0-.065,1.315,1.584,1.584,0,0,0,.882.921,1.818,1.818,0,0,0,1.273.065l8.035-2.958v39.641h-7.577a1.618,1.618,0,0,0-1.143.46,1.552,1.552,0,0,0-.49,1.184,1.58,1.58,0,0,0,.49,1.15,1.559,1.559,0,0,0,1.143.493h18.16Zm40.7,0a1.533,1.533,0,0,0,1.176-.493,1.642,1.642,0,0,0,.457-1.15,1.613,1.613,0,0,0-.457-1.184,1.591,1.591,0,0,0-1.176-.46H279.191a19.757,19.757,0,0,1,3.136-8.382,21.634,21.634,0,0,1,7.055-6.935q6.334-3.879,9.113-8.086a15.859,15.859,0,0,0,2.776-8.875,11.476,11.476,0,0,0-1.535-5.95,10.625,10.625,0,0,0-4.279-4.043,13.261,13.261,0,0,0-6.271-1.446,13.746,13.746,0,0,0-7.872,2.268,13.456,13.456,0,0,0-5,6.344,1.631,1.631,0,0,0,0,1.282,1.579,1.579,0,0,0,.914.887,1.45,1.45,0,0,0,1.209,0,1.591,1.591,0,0,0,.882-0.92,9.92,9.92,0,0,1,3.789-4.9,10.8,10.8,0,0,1,6.075-1.676,9.086,9.086,0,0,1,6.369,2.235,7.628,7.628,0,0,1,2.45,5.917,12.892,12.892,0,0,1-.817,4.372,14.767,14.767,0,0,1-3.037,4.733,30.022,30.022,0,0,1-6.468,5.1,24.446,24.446,0,0,0-6.369,5.456,25.393,25.393,0,0,0-4.083,6.9,20.125,20.125,0,0,0-1.437,7.363,1.58,1.58,0,0,0,.49,1.15,1.56,1.56,0,0,0,1.143.493h22.6Zm34.491-.953a12.672,12.672,0,0,0,4.8-5.029,15.309,15.309,0,0,0,1.731-7.363q0-7.626-4.768-11.636a13.317,13.317,0,0,0-8.558-2.958q2.547-3.024,5.357-6.443T340.6,236.2a1.675,1.675,0,0,0,.327-0.986,1.191,1.191,0,0,0-.2-0.723,1.366,1.366,0,0,0-1.437-.986H317.014a1.562,1.562,0,0,0-1.144.493,1.659,1.659,0,0,0-.49,1.216,1.479,1.479,0,0,0,.49,1.118,1.618,1.618,0,0,0,1.144.46h18.813q-2.416,2.958-5.258,6.376t-7.741,9.336a1.572,1.572,0,0,0-.392,1.051,2.573,2.573,0,0,0,.2.855,1.7,1.7,0,0,0,1.763.789q6.206-1.117,9.8,1.972,3.592,3.024,3.593,9.138a11.227,11.227,0,0,1-1.535,6.147,9.82,9.82,0,0,1-3.887,3.582,10.9,10.9,0,0,1-4.965,1.184,17.288,17.288,0,0,1-5.977-.888,14.856,14.856,0,0,1-4.671-2.925,1.361,1.361,0,0,0-1.143-.493,1.556,1.556,0,0,0-1.143.559,1.46,1.46,0,0,0-.425,1.15,1.944,1.944,0,0,0,.49,1.216,17.538,17.538,0,0,0,5.684,3.55,20.636,20.636,0,0,0,7.185,1.118A13.778,13.778,0,0,0,334.521,278.7Z" transform="translate(0 -232.531)"/>
</svg>
