<svg viewBox="0 0 909.54 1334.3"><g><g><path d="M4.16,438a31,31,0,0,0,42.35,11.35l550.88-318.1a31,31,0,0,0-31-53.69L15.5,395.67A31,31,0,0,0,4.16,438Z"/><path d="M31,306.7a30.9,30.9,0,0,0,15.48-4.16L470.25,57.85a31,31,0,1,0-31-53.69L15.5,248.85A31,31,0,0,0,31,306.7Z"/><path d="M863,1031.82l-154,88.9-65.14-37.61L894,938.71A31,31,0,1,0,863,885l-281.15,162.3-65.13-37.61L766.34,865.61l.93-.54,126.47-73,.18-.11.11-.06c.37-.21.73-.44,1.08-.66s.67-.43,1-.66l.78-.54.68-.52.82-.66c.19-.16.38-.31.56-.48q.67-.58,1.32-1.2l0,0c.44-.43.86-.88,1.27-1.34.09-.09.17-.19.26-.29.38-.43.75-.87,1.1-1.32l.12-.15a30.14,30.14,0,0,0,2.26-3.38.86.86,0,0,0,.07-.1l.06-.12c.2-.35.39-.69.57-1l.21-.4c.15-.29.28-.57.42-.86l.28-.63c.09-.2.17-.4.26-.61s.24-.58.35-.88l.12-.32c.14-.39.28-.78.4-1.17v0a30.89,30.89,0,0,0,1.47-8.72v-1.44c0-.46,0-.93-.07-1.39v0a30.71,30.71,0,0,0-1.39-7.22.29.29,0,0,0,0-.09q-.18-.55-.39-1.11c0-.13-.09-.25-.13-.38-.11-.28-.22-.55-.34-.83s-.18-.45-.28-.67-.17-.38-.26-.57-.28-.61-.44-.91l-.18-.36c-.19-.37-.39-.73-.6-1.09l0-.11-.07-.11c-.23-.39-.46-.77-.71-1.15l-.12-.19c-.24-.37-.49-.73-.74-1.09-.06-.07-.11-.15-.16-.22-.24-.33-.49-.65-.74-1l-.24-.3c-.22-.28-.45-.55-.69-.82l-.35-.4-.62-.66-.48-.51-.52-.5-.65-.6-.41-.36c-.27-.23-.53-.46-.81-.68l-.31-.25-1-.73-.25-.17-1.06-.73-.22-.14-1.11-.68-.14-.08L347.25,422.51l107.51-62.08L863,596.14a31,31,0,1,0,31-53.7L516.76,324.64,581.89,287,863,449.34a31,31,0,1,0,31-53.69L643.89,251.23,709,213.62l154,88.92a31,31,0,1,0,31-53.69L724.52,151l-.12-.06-1.06-.58-.39-.2-.89-.43-.59-.27-.65-.27-.84-.34-.37-.13c-.37-.14-.75-.27-1.12-.39l-.08,0a30.79,30.79,0,0,0-7.23-1.39h-.08c-.45,0-.91,0-1.36-.06h-1.43a30.89,30.89,0,0,0-8.72,1.47h0c-.39.12-.77.26-1.16.4l-.33.12-.88.35-.62.26-.61.28c-.29.14-.58.27-.87.42l-.41.21c-.35.18-.69.37-1,.56l-.13.07L567,224l-.58.34L439.89,297.43c-.46.25-.92.51-1.37.79L15.5,542.48l-.12.07-1.14.7-.19.13c-.37.24-.73.48-1.09.74l-.22.16c-.33.24-.65.49-1,.74l-.3.24c-.28.22-.55.45-.83.69l-.39.35-.66.62-.5.48-.51.52-.59.64-.38.42-.67.8-.26.33c-.24.3-.48.62-.71.94-.06.08-.12.17-.19.25l-.71,1.05-.15.23c-.23.36-.46.73-.67,1.1l-.09.15a.75.75,0,0,0-.07.12c-.2.35-.39.69-.57,1l-.21.41c-.14.29-.28.57-.41.86s-.19.42-.29.62-.17.41-.25.62l-.36.88-.11.33c-.15.38-.28.77-.41,1.16v0A31.17,31.17,0,0,0,0,568.61c0,.24,0,.47,0,.71s0,.48,0,.72a31.1,31.1,0,0,0,1.46,8.7l0,0q.18.57.39,1.14c0,.11.08.24.13.35.11.29.22.57.34.86l.27.64.27.59c.14.3.28.6.43.89.06.13.13.26.2.38.18.36.38.72.58,1.07l.06.12.06.09a30.23,30.23,0,0,0,2.27,3.38l.11.14c.36.46.73.9,1.11,1.34l.25.28c.42.46.84.92,1.28,1.35,0,0,0,0,0,0,.42.41.86.81,1.31,1.21l.57.48.81.65.69.52.75.53c.39.27.78.52,1.18.77s.6.38.92.56l.09.05.21.13L562.27,911.83,454.75,973.91,46.51,738.2a31,31,0,0,0-31,53.69l551.1,318.19h0l126.9,73.27a.05.05,0,0,0,0,0c.49.28,1,.54,1.49.8l.37.19c.36.18.72.33,1.09.49s.55.26.83.37l.2.08a31,31,0,0,0,11.45,2.21h.06a30.66,30.66,0,0,0,11.54-2.25l.1,0c.3-.12.59-.26.89-.39s.69-.3,1-.47l.4-.2c.49-.25,1-.51,1.47-.79l0,0L894,1085.52a31,31,0,0,0-31-53.7ZM816.53,765l-65.14,37.61L220.13,495.92l65.13-37.61ZM93,569.32l65.13-37.6L689.39,838.44,624.27,876Z"/><path d="M597.41,1203.13,46.57,885a31,31,0,0,0-31,53.69L566.4,1256.82a31,31,0,0,0,31-53.69Z"/><path d="M470.25,1276.45,46.5,1031.83a31,31,0,1,0-31,53.69l423.74,244.62a31,31,0,1,0,31-53.69Z"/></g></g></svg>