<svg xmlns="http://www.w3.org/2000/svg" width="1152.747" height="73.469" viewBox="0 0 1152.747 73.469">
  <defs>
    <style>
      .cls-1 {
        fill: #fff;
        fill-rule: evenodd;
      }
    </style>
  </defs>
  <path id="Let_s_Make_Wealth_Collectively_copy" data-name="Let&apos;s Make Wealth Collectively copy" class="cls-1" d="M28.166,883.9V827.758H22.322V883.9h5.845Zm24.84,0v-5.306H26.628V883.9H53.006Zm35.067-.308a16.3,16.3,0,0,0,6.229-4.575,15.217,15.217,0,0,0,3.23-7.037H92.148a9.879,9.879,0,0,1-4.076,5.729,14.224,14.224,0,0,1-8.613,2.423,14.338,14.338,0,0,1-8.267-2.231,13.264,13.264,0,0,1-4.845-6.036,21.8,21.8,0,0,1-1.576-8.421,21.157,21.157,0,0,1,1.576-8.383,13.65,13.65,0,0,1,4.73-5.921A13.385,13.385,0,0,1,79,846.907a13.693,13.693,0,0,1,7.575,1.961,12.461,12.461,0,0,1,4.614,5.383,18.863,18.863,0,0,1,1.576,7.959l1.461-2.23H61.849v4.461H98.224v-3a21.421,21.421,0,0,0-2.153-9.5,18.217,18.217,0,0,0-6.421-7.267A18.794,18.794,0,0,0,79,841.831a19.813,19.813,0,0,0-8.728,1.807,18.067,18.067,0,0,0-6.191,4.807,20.123,20.123,0,0,0-3.653,6.767,25.336,25.336,0,0,0-1.192,7.69v1.077a25.571,25.571,0,0,0,1.192,7.767,20.536,20.536,0,0,0,3.653,6.806,17.573,17.573,0,0,0,6.306,4.845,21.158,21.158,0,0,0,9.075,1.807A21.68,21.68,0,0,0,88.072,883.589Zm42.45,0.769v-5.229h-7.306a7.47,7.47,0,0,1-5.46-1.884,7.25,7.25,0,0,1-1.922-5.422v-41.45H110.3v40.6a16.018,16.018,0,0,0,1.692,7.96,9.368,9.368,0,0,0,4.768,4.191,19.652,19.652,0,0,0,7.3,1.23h6.46Zm0-36.759v-4.384H102.991V847.6h27.531Zm16.226,0.307V827.758h-5v20.148h5ZM183.2,883.435a13.376,13.376,0,0,0,5.729-4.5,11,11,0,0,0,2.038-6.5,9.494,9.494,0,0,0-3.884-8.151,20.6,20.6,0,0,0-10.036-3.538l-4.614-.461a9.349,9.349,0,0,1-5.537-2.038,5.486,5.486,0,0,1-1.768-4.191,6.524,6.524,0,0,1,2.345-5.076q2.344-2.076,7.114-2.076,4.614,0,7,2a6.431,6.431,0,0,1,2.461,4.922h5.383a10.489,10.489,0,0,0-4.191-8.767q-4.116-3.075-10.651-3.076a19.13,19.13,0,0,0-7.883,1.5,12.129,12.129,0,0,0-5.191,4.191,10.88,10.88,0,0,0-1.846,6.306,9.449,9.449,0,0,0,3.423,7.728,16.68,16.68,0,0,0,8.959,3.423l4.614,0.461a13.62,13.62,0,0,1,6.575,2.115,5.424,5.424,0,0,1,2.269,4.652,6.916,6.916,0,0,1-2.73,5.5q-2.731,2.269-8.19,2.269-5.846,0-8.344-2.384a7.8,7.8,0,0,1-2.654-5.307h-5.383a11.417,11.417,0,0,0,4.307,9.19q4.228,3.421,12.074,3.422A21.335,21.335,0,0,0,183.2,883.435Zm43.832,0.462V834.3l-0.615.077,17.15,37.682h7.69l17.072-37.682-0.461-.077v49.6h5.844V827.758h-7.767l-17.61,38.836h-1.385l-17.687-38.836h-7.614V883.9h5.383Zm92.284,0V857.75a18.192,18.192,0,0,0-1.769-8.652,10.59,10.59,0,0,0-5.576-4.806,27.245,27.245,0,0,0-10.035-1.538q-1.77,0-3.653.038t-3.653.193q-1.77.154-3.461,0.307v5.076q1.615-.153,3.73-0.269t4.46-.193q2.346-.075,4.653-0.076,5,0,7.383,2.422t2.384,6.96v14.457H314.7V883.9h4.615Zm-11-.462a11.782,11.782,0,0,0,5-4.575,16.572,16.572,0,0,0,2.153-7.575l-1.691-2.384a12.543,12.543,0,0,1-1.923,6.883,9.721,9.721,0,0,1-4.383,3.537,14.673,14.673,0,0,1-5.461,1.038,10.97,10.97,0,0,1-7.305-2.268,7.581,7.581,0,0,1-2.692-6.114,7.884,7.884,0,0,1,2.576-6.114q2.576-2.345,7.421-2.345h12.3v-4.384H302.4a22.343,22.343,0,0,0-8.652,1.5,11.814,11.814,0,0,0-5.46,4.345A12.249,12.249,0,0,0,286.4,871.9a13.191,13.191,0,0,0,1.807,7.075,11.589,11.589,0,0,0,5.114,4.46,17.87,17.87,0,0,0,7.614,1.539A16.662,16.662,0,0,0,308.317,883.435Zm59.83,0.462-21.226-24.532-0.384,3.153,17.3-19.3h-6.152l-19.3,21.61H345l16.38,19.072h6.768Zm-28.685,0V827.758h-5.768V883.9h5.768Zm62.06-.308a16.3,16.3,0,0,0,6.229-4.575,15.218,15.218,0,0,0,3.23-7.037H405.6a9.878,9.878,0,0,1-4.076,5.729,16.477,16.477,0,0,1-16.88.192,13.261,13.261,0,0,1-4.845-6.036,21.806,21.806,0,0,1-1.576-8.421,21.164,21.164,0,0,1,1.576-8.383,13.648,13.648,0,0,1,4.73-5.921,13.383,13.383,0,0,1,7.921-2.23,13.689,13.689,0,0,1,7.574,1.961,12.465,12.465,0,0,1,4.615,5.383,18.866,18.866,0,0,1,1.576,7.959l1.461-2.23H375.3v4.461h36.375v-3a21.416,21.416,0,0,0-2.153-9.5,18.22,18.22,0,0,0-6.421-7.267,18.8,18.8,0,0,0-10.651-2.846,19.814,19.814,0,0,0-8.729,1.807,18.079,18.079,0,0,0-6.191,4.807,20.123,20.123,0,0,0-3.652,6.767,25.317,25.317,0,0,0-1.192,7.69v1.077a25.553,25.553,0,0,0,1.192,7.767,20.536,20.536,0,0,0,3.652,6.806,17.581,17.581,0,0,0,6.306,4.845,21.161,21.161,0,0,0,9.075,1.807A21.682,21.682,0,0,0,401.522,883.589Zm60.521,0.308,12.612-53.678h-5.537l-11.459,49.91,2.923-1.538h-7.46l2.692,1.538-14.073-52.371h-6L451.276,883.9h10.767Zm33.76,0,14.227-56.139h-5.845L491.5,880.129l2.922-1.538h-7.614l2.846,1.538-12.766-49.91h-5.691L485.037,883.9H495.8Zm49.833-.308a16.3,16.3,0,0,0,6.229-4.575,15.218,15.218,0,0,0,3.23-7.037h-5.383a9.878,9.878,0,0,1-4.076,5.729,16.477,16.477,0,0,1-16.88.192,13.261,13.261,0,0,1-4.845-6.036,21.788,21.788,0,0,1-1.577-8.421,21.146,21.146,0,0,1,1.577-8.383,13.653,13.653,0,0,1,4.729-5.921,13.387,13.387,0,0,1,7.921-2.23,13.693,13.693,0,0,1,7.575,1.961,12.456,12.456,0,0,1,4.614,5.383,18.851,18.851,0,0,1,1.577,7.959l1.461-2.23H519.412v4.461h36.375v-3a21.43,21.43,0,0,0-2.153-9.5,18.215,18.215,0,0,0-6.422-7.267,18.793,18.793,0,0,0-10.651-2.846,19.812,19.812,0,0,0-8.728,1.807,18.07,18.07,0,0,0-6.191,4.807,20.143,20.143,0,0,0-3.653,6.767,25.348,25.348,0,0,0-1.192,7.69v1.077a25.583,25.583,0,0,0,1.192,7.767,20.556,20.556,0,0,0,3.653,6.806,17.573,17.573,0,0,0,6.306,4.845,21.161,21.161,0,0,0,9.075,1.807A21.682,21.682,0,0,0,545.636,883.589Zm50.6,0.308V857.75a18.192,18.192,0,0,0-1.769-8.652,10.584,10.584,0,0,0-5.575-4.806,27.251,27.251,0,0,0-10.036-1.538q-1.77,0-3.653.038t-3.653.193q-1.769.154-3.46,0.307v5.076q1.615-.153,3.73-0.269t4.46-.193q2.345-.075,4.653-0.076,5,0,7.382,2.422t2.384,6.96v14.457h0.923V883.9h4.614Zm-11-.462a11.788,11.788,0,0,0,5-4.575,16.584,16.584,0,0,0,2.153-7.575L590.7,868.9a12.535,12.535,0,0,1-1.922,6.883,9.719,9.719,0,0,1-4.384,3.537,14.667,14.667,0,0,1-5.46,1.038,10.973,10.973,0,0,1-7.306-2.268,7.58,7.58,0,0,1-2.691-6.114,7.884,7.884,0,0,1,2.576-6.114q2.576-2.345,7.421-2.345h12.305v-4.384h-11.92a22.343,22.343,0,0,0-8.652,1.5,11.814,11.814,0,0,0-5.46,4.345,12.249,12.249,0,0,0-1.884,6.921,13.191,13.191,0,0,0,1.807,7.075,11.584,11.584,0,0,0,5.114,4.46,17.87,17.87,0,0,0,7.614,1.539A16.665,16.665,0,0,0,585.24,883.435Zm31.529,0.462V827.758H611V883.9h5.768Zm0-51.448v-4.691H605.08v4.691h11.689Zm36.143,51.909v-5.229h-7.305a7.467,7.467,0,0,1-5.46-1.884,7.247,7.247,0,0,1-1.923-5.422v-41.45h-5.537v40.6a16.028,16.028,0,0,0,1.692,7.96,9.372,9.372,0,0,0,4.768,4.191,19.654,19.654,0,0,0,7.306,1.23h6.459Zm0-36.759v-4.384H625.381V847.6h27.531Zm16.918,36.3V859.98a13.018,13.018,0,0,1,3.23-9.19,11.252,11.252,0,0,1,8.69-3.5,10.623,10.623,0,0,1,8.075,3.153q3,3.155,3,8.613V883.9h5.691V860.288q0-8.611-3.807-13.458t-11.189-4.845h-0.308a14.327,14.327,0,0,0-8.421,2.345,14.025,14.025,0,0,0-5,6.576,27.159,27.159,0,0,0-1.654,9.92l1.692-1.307V827.758h-5.768V883.9h5.768Zm99.011-1.384a21.98,21.98,0,0,0,8.5-7.345,24.719,24.719,0,0,0,4-10.42h-5.921a16.757,16.757,0,0,1-6.46,11.189,21.062,21.062,0,0,1-12.92,3.884,22.471,22.471,0,0,1-9.689-1.961,19.416,19.416,0,0,1-6.921-5.383,23.121,23.121,0,0,1-4.115-7.729,30,30,0,0,1-1.346-9,30.351,30.351,0,0,1,1.385-9.266,23.522,23.522,0,0,1,4.076-7.691,18.6,18.6,0,0,1,6.728-5.229,21.879,21.879,0,0,1,9.344-1.884,22.977,22.977,0,0,1,8.959,1.692,16.26,16.26,0,0,1,6.652,5.037,16.546,16.546,0,0,1,3.23,8.344h5.922a23.248,23.248,0,0,0-3.845-10.805A21.167,21.167,0,0,0,768,828.835a31.978,31.978,0,0,0-24.878-.039,24.229,24.229,0,0,0-8.575,6.652,27.611,27.611,0,0,0-4.922,9.267,34.685,34.685,0,0,0-1.576,10.266v1.462a33.469,33.469,0,0,0,1.538,9.805,28.869,28.869,0,0,0,4.883,9.343,24.693,24.693,0,0,0,8.69,6.96,28.711,28.711,0,0,0,12.881,2.653A28.194,28.194,0,0,0,768.841,882.513Zm50.486,0.884a19.964,19.964,0,0,0,6.729-4.845,20.875,20.875,0,0,0,4.114-6.806,22.13,22.13,0,0,0,1.384-7.69v-1.077a21.9,21.9,0,0,0-1.423-7.728,20.547,20.547,0,0,0-4.191-6.806,20.772,20.772,0,0,0-6.729-4.807,23.689,23.689,0,0,0-18.149,0,20.772,20.772,0,0,0-6.729,4.807,21.07,21.07,0,0,0-4.229,6.806,21.386,21.386,0,0,0-1.461,7.728v1.077a21.753,21.753,0,0,0,5.575,14.5,20.017,20.017,0,0,0,6.691,4.845A21.942,21.942,0,0,0,810.1,885.2,22.224,22.224,0,0,0,819.327,883.4ZM801.6,877.783a14.877,14.877,0,0,1-5.345-6,19.427,19.427,0,0,1,.038-16.611,14.554,14.554,0,0,1,5.422-5.922,17.271,17.271,0,0,1,16.842,0,14.573,14.573,0,0,1,5.421,5.922,19.431,19.431,0,0,1,.039,16.611,14.9,14.9,0,0,1-5.345,6,15.432,15.432,0,0,1-8.575,2.269A15.277,15.277,0,0,1,801.6,877.783Zm47.871,6.114V827.758H843.7V883.9h5.768Zm0-51.448v-4.691H837.783v4.691h11.689Zm21.07,51.448V827.758h-5.768V883.9h5.768Zm0-51.448v-4.691H858.853v4.691h11.689Zm40.527,51.14a16.308,16.308,0,0,0,6.229-4.575,15.218,15.218,0,0,0,3.23-7.037h-5.383a9.878,9.878,0,0,1-4.076,5.729,16.477,16.477,0,0,1-16.88.192,13.261,13.261,0,0,1-4.845-6.036,21.788,21.788,0,0,1-1.577-8.421,21.146,21.146,0,0,1,1.577-8.383,13.653,13.653,0,0,1,4.729-5.921,13.387,13.387,0,0,1,7.921-2.23,13.693,13.693,0,0,1,7.575,1.961,12.456,12.456,0,0,1,4.614,5.383,18.851,18.851,0,0,1,1.577,7.959l1.461-2.23H884.845v4.461H921.22v-3a21.43,21.43,0,0,0-2.153-9.5,18.215,18.215,0,0,0-6.422-7.267,18.793,18.793,0,0,0-10.651-2.846,19.812,19.812,0,0,0-8.728,1.807,18.07,18.07,0,0,0-6.191,4.807,20.143,20.143,0,0,0-3.653,6.767,25.348,25.348,0,0,0-1.192,7.69v1.077a25.583,25.583,0,0,0,1.192,7.767,20.556,20.556,0,0,0,3.653,6.806,17.573,17.573,0,0,0,6.306,4.845,21.161,21.161,0,0,0,9.075,1.807A21.682,21.682,0,0,0,911.069,883.589Zm47.525-.269a17.2,17.2,0,0,0,6.652-5.306,14.675,14.675,0,0,0,2.884-8.036h-5.537a10.205,10.205,0,0,1-2.038,5.075,12.074,12.074,0,0,1-4.537,3.653,15.049,15.049,0,0,1-6.575,1.346,13.179,13.179,0,0,1-13-8.344,20.959,20.959,0,0,1-1.615-8.267,20.6,20.6,0,0,1,1.615-8.267,13.536,13.536,0,0,1,4.807-5.922,13.874,13.874,0,0,1,8.036-2.192q5.613,0,8.882,2.807a11.456,11.456,0,0,1,3.961,7.037h5.537a16.051,16.051,0,0,0-2.923-8,16.3,16.3,0,0,0-6.421-5.229,21.15,21.15,0,0,0-9.036-1.846,20.318,20.318,0,0,0-8.8,1.807,18.459,18.459,0,0,0-6.345,4.845,21.055,21.055,0,0,0-3.807,6.768,23.6,23.6,0,0,0-1.269,7.651v1.077a23.7,23.7,0,0,0,1.269,7.613,21.845,21.845,0,0,0,3.807,6.883,18.013,18.013,0,0,0,6.345,4.922,20.7,20.7,0,0,0,8.959,1.807A21.562,21.562,0,0,0,958.594,883.32Zm41.373,1.038v-5.229h-7.306a7.469,7.469,0,0,1-5.46-1.884,7.25,7.25,0,0,1-1.922-5.422v-41.45h-5.538v40.6a16.028,16.028,0,0,0,1.692,7.96,9.372,9.372,0,0,0,4.768,4.191,19.658,19.658,0,0,0,7.306,1.23h6.46Zm0-36.759v-4.384H972.436V847.6h27.531Zm18.993,36.3V843.215h-5.69V883.9h5.69Zm0-36.067v-4.615h-12.23v4.615h12.23Zm-1.38-13.266a4.44,4.44,0,0,0,0-5.614,3.949,3.949,0,0,0-3.08-1.115,4.048,4.048,0,0,0-3.11,1.115,4.308,4.308,0,0,0,0,5.614,4.045,4.045,0,0,0,3.11,1.115A3.945,3.945,0,0,0,1017.58,834.564Zm31.37,49.333-14.15-40.682h-5.92l14.31,40.682h5.76Zm3.08,0v-4.691h-7.31V883.9h7.31Zm1.31,0,12.61-40.682h-5.69L1047.88,883.9h5.46Zm48.44-.308a16.229,16.229,0,0,0,6.23-4.575,15.188,15.188,0,0,0,3.23-7.037h-5.38a9.846,9.846,0,0,1-4.08,5.729,14.2,14.2,0,0,1-8.61,2.423,14.358,14.358,0,0,1-8.27-2.231,13.251,13.251,0,0,1-4.84-6.036,21.826,21.826,0,0,1-1.58-8.421,21.181,21.181,0,0,1,1.58-8.383,13.67,13.67,0,0,1,4.73-5.921,13.378,13.378,0,0,1,7.92-2.23,13.673,13.673,0,0,1,7.57,1.961,12.429,12.429,0,0,1,4.62,5.383,18.866,18.866,0,0,1,1.58,7.959l1.46-2.23h-32.38v4.461h36.38v-3a21.354,21.354,0,0,0-2.16-9.5,18.135,18.135,0,0,0-6.42-7.267,18.79,18.79,0,0,0-10.65-2.846,19.843,19.843,0,0,0-8.73,1.807,18.038,18.038,0,0,0-6.19,4.807,20.066,20.066,0,0,0-3.65,6.767,25.192,25.192,0,0,0-1.19,7.69v1.077a25.428,25.428,0,0,0,1.19,7.767,20.477,20.477,0,0,0,3.65,6.806,17.536,17.536,0,0,0,6.31,4.845,21.119,21.119,0,0,0,9.07,1.807A21.656,21.656,0,0,0,1101.78,883.589Zm27.38,0.308V827.758h-5.77V883.9h5.77Zm0-51.448v-4.691h-11.69v4.691h11.69Zm16.23,67.29a20.173,20.173,0,0,0,6.84-1.077,12.363,12.363,0,0,0,5.15-3.5,17.075,17.075,0,0,0,3.39-6.344l14.3-45.6h-5.61L1155.77,887.2a14.041,14.041,0,0,1-2.23,4.46,6.982,6.982,0,0,1-3.23,2.269,14.432,14.432,0,0,1-4.62.653h-5.22v5.153h4.92ZM1161,882.9v-4.845h-7.31V882.9H1161Zm-2.62,0-14.22-39.682h-5.93L1153,882.9h5.38Z" transform="translate(-22.313 -826.281)"/>
</svg>
